/* XPM */
static char *_678f5aaee5f49dfed625b1ecb8c638a8gWe3IdmFUqqqjyR[] = {
/* columns rows colors chars-per-pixel */
"32 32 144 2 ",
"   c black",
".  c yellow",
"X  c yellow",
"o  c #FFFF01",
"O  c #FFFF01",
"+  c #FFFF01",
"@  c #FFFF01",
"#  c yellow",
"$  c yellow",
"%  c #FFFF01",
"&  c #FFFF01",
"*  c #FFFF01",
"=  c yellow",
"-  c #FFFF01",
";  c #FFFF01",
":  c yellow",
">  c #FFFF01",
",  c yellow",
"<  c #FFFF01",
"1  c #EFEF01",
"2  c #727200",
"3  c #6B6B34",
"4  c #ABAB76",
"5  c #B6B65B",
"6  c #E2E205",
"7  c yellow",
"8  c #FFFF01",
"9  c #ECEC01",
"0  c #424200",
"q  c #2D2D2D",
"w  c #F1F1F1",
"e  c white",
"r  c #FEFEFE",
"t  c #9A9A81",
"y  c #D3D301",
"u  c yellow",
"i  c yellow",
"p  c #FFFF01",
"a  c #FAFA01",
"s  c #909000",
"d  c black",
"f  c gray48",
"g  c gray88",
"h  c #616107",
"j  c #FBFB01",
"k  c #FFFF01",
"l  c #FFFF01",
"z  c #EEEE01",
"x  c #545400",
"c  c gray33",
"v  c gray73",
"b  c #181801",
"n  c #E5E501",
"m  c #FFFF01",
"M  c yellow",
"N  c #EBEB01",
"B  c #717171",
"V  c #C6C6C6",
"C  c gray63",
"Z  c gray8",
"A  c #161600",
"S  c #E3E301",
"D  c yellow",
"F  c #FFFF01",
"G  c #F1F101",
"H  c #878700",
"J  c #4B4B00",
"K  c #F7F701",
"L  c #FFFF01",
"P  c #FFFF01",
"I  c yellow",
"U  c #FFFF01",
"Y  c #FCFC01",
"T  c #D6D601",
"R  c #3D3D00",
"E  c #171700",
"W  c #BBBB01",
"Q  c #FEFE01",
"!  c None",
"~  c #FFFF01",
"^  c #FFFF01",
"/  c #FFFF01",
"(  c #F6F601",
")  c #656500",
"_  c #232300",
"`  c #202000",
"'  c #464600",
"]  c #C5C501",
"[  c #FFFF01",
"{  c #FFFF01",
"}  c yellow",
"|  c #FFFF01",
" . c #E9E901",
".. c #E1E101",
"X. c #E2E201",
"o. c #FDFD01",
"O. c #FFFF01",
"+. c #FFFF01",
"@. c yellow",
"#. c yellow",
"$. c #FFFF01",
"%. c #FFFF01",
"&. c #FFFF01",
"*. c yellow",
"=. c yellow",
"-. c #FFFF01",
";. c yellow",
":. c #FFFF01",
">. c #FFFF01",
",. c #FFFF01",
"<. c yellow",
"1. c #FFFF01",
"2. c #FFFF01",
"3. c #FFFF01",
"4. c yellow",
"5. c #FFFF01",
"6. c yellow",
"7. c #FFFF01",
"8. c yellow",
"9. c yellow",
"0. c #FFFF01",
"q. c #FFFF01",
"w. c yellow",
"e. c #FFFF01",
"r. c yellow",
"t. c #FFFF01",
"y. c #FFFF01",
"u. c yellow",
"i. c #FFFF01",
"p. c #FFFF01",
"a. c yellow",
"s. c #FFFF01",
"d. c #FFFF01",
"f. c #FFFF01",
"g. c #FFFF01",
"h. c yellow",
"j. c yellow",
"k. c #FFFF01",
"l. c #FFFF01",
"z. c yellow",
"x. c #FFFF01",
"c. c #FFFF01",
"v. c #FFFF01",
"b. c #FFFF01",
/* pixels */
"                    . X o O + @ @ + O o X .                     ",
"              # $ % & * * * * * * * * * * & % $ #               ",
"            = - ; * * * * * * * * * * * * * * ; - =             ",
"          : > * * * * * * * * * * * * * * * * * * > :           ",
"        , < * 1 2 3 4 5 6 * * * * * * * * * * * * * < ,         ",
"      7 8 * 9 0 q w e r t y * * * * * * * * * * * * * 8 u       ",
"    i p * a s d f e e e g h j * * * * * * * * * * * * * k =     ",
"  # l * * z x d c e e e v b n * * * * * * * * * * * * * * m #   ",
"  M ; * * N x d d B V C Z A S * * * * * * * * * * * * * * ; D   ",
"  F * * * G H d d d d d d J K * * * * * * * * * * * * * * L P   ",
"I U * * * Y T R d d d d E W Q * * * * * * * * * * * ! ~ ^ u     ",
"/ * * * * * ( T ) _ ` ' ] j * * * * * * * * * * ! [ { }         ",
"| * * * * * * j  ...X.1 o.* * * * * * * * * O.+.@.#.            ",
"$.* * * * * * * * * * * * * * * * * * * %.&.*.=.                ",
"@ * * * * * * * * * * * * * * * * * -.- , ;.                    ",
"* * * * * * * * * * * * * * * * :.>.}                           ",
"* * * * * * * * * * * * * * * * ,.<.=.                          ",
"1.* * * * * * * * * * * * * * * * * 2.3.4.#                     ",
"5.* * * * * * * * * * * * * * * * * * * + - 6.#                 ",
"| * * * * * * * * * * * * * * * * * * * * * ; 7.8.=.            ",
"9.* * * * * * * * * * * * * * * * * * * * * * * 0.k q.w.        ",
"I U * * * * * * * * * * * * * * * * * * * * * * * * ! :.e.r.    ",
"  o * * * * * * * * * * * * * * * * * * * * * * * * * * * t.P   ",
"  M y.* * * * * * * * * * * * * * * * * * * * * * * * * * O.u.  ",
"  # i.* * * * * * * * * * * * * * * * * * * * * * * * * * p.a.  ",
"    s.d.* * * * * * * * * * * * * * * * * * * * * * * * f.g.    ",
"      h.< * * * * * * * * * * * * * * * * * * * * * * < h.      ",
"        j.8 * * * * * * * * * * * * * * * * * * * * 8 j.        ",
"          7 k.* * * * * * * * * * * * * * * * * * k.7           ",
"            = l.y.* * * * * * * * * * * * * * y.l.=             ",
"              ;.z.7.x.* * * * * * * * * * x.7.z.;.              ",
"                    4.c.v.< b.* * b.< v.c.4.                    "
};
