/* XPM */
static char *__resized[] = {
/* columns rows colors chars-per-pixel */
"70 70 34 1 ",
"  c #2E2D2A",
". c #302F2C",
"X c #32312E",
"o c #353430",
"O c #393734",
"+ c #3B3936",
"@ c #3E3C39",
"# c #413E3B",
"$ c #44413E",
"% c #464441",
"& c #494644",
"* c #4D4946",
"= c #4E4A48",
"- c #504C47",
"; c #514E4A",
": c #56524D",
"> c #58534E",
", c #565350",
"< c #595552",
"1 c #5C5956",
"2 c #5E5B58",
"3 c #605B57",
"4 c #625E5A",
"5 c #65615E",
"6 c #68645F",
"7 c #676360",
"8 c #6A6662",
"9 c #6D6966",
"0 c #6F6C68",
"q c #706C67",
"w c #726E6A",
"e c #76726E",
"r c #777370",
"t c #787470",
/* pixels */
":>>>>,48889899888888888888888888886886696698885$O+>7688868888888888888",
":>4674689wweweeeeeeeereereereereereer960erw688652$:<>288888eeeeeeeew88",
">>6788889wqrrrrrtwwtttttttrrttttrrttrrerrrreeeeee545;;9eeeetttttwwtrw8",
":>4888889988;8etteettttttrrw99qq9qrtrrtrrrreqtttee97429tettetttteetwq8",
">>4888884*3<#4wrrtttttttrttewwwwwwtttr68wrrrerrretewweeetttttttwqqqq66",
":>688844;#33,9rrtewtttwwrttttttttte155<4wrrtrtretttteeetttttttte4:3346",
">>6888<;<:889ewwwqqtw916wwwwwwwwww9#>3359erewwqwewetteetwwwwwwww3>>&-6",
":>1444;-44444944436631$343444453451#<44556665555446989664444444455>#&3",
">>>>>:::::>>>>>>,,,,,,<>,,,,,,,,:<:$::><>>>>::>>::::>>>>>>::::::>>>>>>",
"**==*******&****&&**-$-$***&&=&&$-:$-$$-$::$*&**---&***&---&--*-******",
"X       ....   .    X    .  ..    ..   . .X.        ..  .            .",
"XXXXoooo....                                                 XXXoooo..",
";25287424,                                                   :46q643:-",
"56eerrerw1.            .              ..      ..             4etttw654",
"888errtte1 .-;-;;,;;;;;$@$#$%%%%$@+$$$$$$$$$$$$$$$XXo+%%#$#X 5ttte6<36",
"1<<240ttw1.o<4467777774,&%**===;-$$@@$;-$-:-**;->;&$++$-=**X 5tttw4>>6",
">>:::6rw91 .;170wwwwwww2,&%====;*%$#@&==========;;;-%##*#==..1ertw4>>3",
":>>::6tq5<..%=2etttttttw2,&%&====&**============--;;===&###..<wrte4>>>",
":>:>>6r611..%#<9rtteeewr02,&%=====;::=============**;;;;*##. <ettw4>>>",
">:>::6q521 .#&;29et92e0tt02,&%&====;;==============-==;;::*. 1qetq4>>:",
"::::>6w691 .&&%:20t7,ee8et02,&%&========================;;&X <7we84>>:",
":::::5wwe<..&*%&=7trw00;9tt02,&%*========================;&X <48tw4>:>",
":::::5qt9* .%==$%2ertrrw9ett02,&%==========**====&&*======&X <;1eq3>>:",
":::::3qt7+ .*===%&2ertttettttw2,&%&========%$====##$*=====&X <79tw4>:>",
":::::3qe6<..&====%&,5errrr9wte02;*%&=======**;:;;*##%=====&o <wrwq3>>>",
"::>::3qee5..&:====%%;289rr,1e2104:&%==========;=-;&&*=====&X <wteq4>>:",
":>:>:3wtt6..&::-===%%;17er87w09ew8:&%============;========&X <wtte4>::",
"::>::5wtw<..&$;:;===&%;29rreetttte4;&%&===================&o <ette4>>:",
">:>>>3665$ X$$$======%%;19etttttrr04,%%&===*==============&o <wttq4>::",
":>>:>>5<<> .&:$&======&%=19ettrtrrr04,=%**=========-;;;===&  <wtte4>:>",
">:>:>>:351 .&==========&%=20trrtrrer02,&%*========*=;==;;=&o <ettw4:>:",
":>:>>$>661..&=====;;;;;;@%=7etttr027e02,*$*=======$###%;,;=o <wtte4>:>",
":>::,38891 X&===;;;=====##&=5wete1%;wt92,&%=======#@@++%===X ,rtte4>>:",
">::::380w3 .&===;;*@@@+@==$&;19r9==wrr082,&%&========%@++%#. ,etw63>::",
":><::30te1 X&==#+%===&=====&&=19ew8ettr082,&%==========%+@+ .,wt3##:::",
":::::30tw1.X&==#$*==========&&;19errtttrr02,&%==========&&&X ,ew6:#:::",
":::::7rte1..&===*;==========&&%;19rtrrrttre8,%%============X ,r0q3#:>:",
":::::8rte1..&===;&============&%=189rrttrttw2,&%&=========&X ,ereq3:::",
":::>,2wtw1..&==================%&;18ertrtttr02,&%=========&X.,wrtw3>>:",
">>::,20re1..&=====;%$===#@&=====&&=19rtttrttt02,&%&========X ,erte4>:>",
"::>::3qt9& .&======%@===%%=======&%=29etttttrr02,&%&===&#%#. ,0eeq3::>",
">::>:4et2o .&======&%;;=;;========&&=29ettttrrr92,&%====###. ,90eq6:>:",
"::>::6tw2% o&=====&;:;;============%&=28etteerr092,&%&=====X.,80etq>:>",
":>:>:6te91  &=====;=================%&=29ttw9rrtt92,&%&===&X.,27et6>>:",
";>>>:6ttw3  &=======================&%&=29ee0rtrt992,&%====X ,=1ttq>:>",
">>>>>6tte3 o*=========================%%=29rrrtrettw2,&%==&X ,&1ttq>>:",
"->>>:6ttt6..&==========================&%=29errr9ett02=&%=&X.1=2tt6>:>",
"#->>>4qtt7..&==;;;=====================&%%=29erretttrw2,&%&. 20wee6:>:",
"#*>>>6rtr3..&==:&%;===;=========*=*#&#&#+@%;189rteettr02,&%. 221we4>>>",
"#*>>>6ttw3..&*;:*&&;==&========&@@@+&@@+$=&%;17ee29tttt02,%X 2,=ww4>:>",
"##->>4qww<..*-;&&=============;&%***=**&;,=%%;19e9,9ttte72,o 7=,rw4>::",
"##*>>>4qq3..&;>&&================;;;=;;;;===&%;29e9,7ttee02o 727te4>:>",
":#$>>>>461..&&--*===========================*&%;29e77tttre2o 200te4>>>",
">>#->>3>51..&#&-;*==*=======&==========*=====*&%,,0ettttrw2o 7wetw4>>;",
">>#$>45>11..&-=======================;;;======-$%=20eettre2X.2rerw4:*:",
">>>##364<1..&==========*============*;,,;=====-=%%=270eerw2o ,w0wq3:#;",
">>>$O*441; .&===----&-*===**=--:=====:=&$**$***==%%;1909w71X ,8wt8<>>>",
">>>>##=4;X .%&&&-$&&&&&&&&&&&*$$&&&&&=@OOOOOOO+$&&$$=,<<2,,o ,77884>>>",
";-;;:#.XX    X..........X.X.X.X........   ..   .... ..XXXXX  X.X*43;;*",
"#oooo..          . ...... .   .X. .    . ..X .    . .        .  Xo#oo#",
"$$--&*****=====*-$------*******$****+o$=***$****=***===*=====&=,31>***",
">>>>>>>>>>>>>>>>::>>::::>>::>>>>>>::=@=>::>>>>>><,:,,,,:,,,,,,,,88<>::",
">>>>>>34444444>>:3544444444453355553>@:5553553444444444444227279q8**44",
">>>>>>;>8wqeq844;&<866wwwwwwwwwwq982>:56669wwwwwww99wwwwwwww0wetq3*$88",
">>:>:>$3wrrttwwq3&;468ttwrtteetttr8-:566860tttrwwrwettttttttttte74<>77",
":::>>:3qrtrwrtttq4>38wttqrttwwtrtt8#<669w0wtttr00etttttttrttrew7790008",
"::>:>>369wwqrtrtw944qtrrttttttttte5:788qetttttrtrttrtrtrerrtr0847rere0",
":>:>>>3446qttttttw8wrrrrttrttrtttt9ettw9wtttttttrrttttre0rttrtw9we0ree",
":::>:>>--9ererrerrrwrrrrrtttrtrereeteeeertrreeeeertrtttrreeeereeeeew88",
">>:>::3666666er986888888rtttttw888688886wtre86988etrrtre88888868888987"
};
