/* XPM */
static char *_37970fa74d74632808fbdda4d6ca0fcQxzy75k9Ak36c6ZQ[] = {
/* columns rows colors chars-per-pixel */
"32 32 169 2 ",
"   c #292728",
".  c #2D2B2C",
"X  c #302E2F",
"o  c #312F30",
"O  c #343334",
"+  c #383637",
"@  c #393738",
"#  c #3D3B3C",
"$  c #403E3F",
"%  c #46443F",
"&  c #3F3E40",
"*  c #403F41",
"=  c #444345",
"-  c #494745",
";  c #494847",
":  c #474648",
">  c #484749",
",  c #4B4B4C",
"<  c #504F4C",
"1  c #53514E",
"2  c #59574F",
"3  c #4F4F50",
"4  c #545354",
"5  c #595753",
"6  c #5C5A55",
"7  c #575759",
"8  c #5C5C5C",
"9  c #615E57",
"0  c #605F5A",
"q  c #626057",
"w  c #65635C",
"e  c #69665E",
"r  c #6B685E",
"t  c #5F5F60",
"y  c #636364",
"u  c #696761",
"i  c #6C6A64",
"p  c #676768",
"a  c #6B6B6C",
"s  c #716D63",
"d  c #706F6C",
"f  c #747165",
"g  c #787565",
"h  c #73716B",
"j  c #79766C",
"k  c #7D7A6D",
"l  c #6E6E70",
"z  c #6F7072",
"x  c #737374",
"c  c #7D7B74",
"v  c #767678",
"b  c #7B7B7C",
"n  c #807B66",
"m  c #817E6E",
"M  c #817E72",
"N  c #83806E",
"B  c #8B866B",
"V  c #848275",
"C  c #8A8674",
"Z  c #8B8877",
"A  c #84837C",
"S  c #898778",
"D  c #8C897B",
"F  c #908B73",
"G  c #928E7D",
"H  c #979376",
"J  c #95917D",
"K  c #7E7F81",
"L  c #7F8082",
"P  c #838384",
"I  c #8C8B85",
"U  c #858689",
"Y  c #87888B",
"T  c #8B8B8B",
"R  c #918F84",
"E  c #959284",
"W  c #999685",
"Q  c #9D9986",
"!  c #95948C",
"~  c #99978B",
"^  c #9C9A8D",
"/  c #8E8F90",
"(  c #939392",
")  c #989790",
"_  c #9C9B94",
"`  c #969798",
"'  c #9C9D9A",
"]  c #A09D8A",
"[  c #A19F93",
"{  c #9FA09C",
"}  c #A4A084",
"|  c #A7A38E",
" . c #A9A58F",
".. c #A4A293",
"X. c #A9A695",
"o. c #ADAA94",
"O. c #A4A39C",
"+. c #AEAC9B",
"@. c #AAA99E",
"#. c #B4AF94",
"$. c #B3AF98",
"%. c #B6B395",
"&. c #B9B597",
"*. c #B3B19F",
"=. c #BDB99D",
"-. c #A2A3A0",
";. c #A3A4A0",
":. c #A7A7A5",
">. c #A7A7A2",
",. c #AEADA2",
"<. c #AEAEA6",
"1. c #AAAAA5",
"2. c #ACACA8",
"3. c #A9AAA8",
"4. c #B1AFA1",
"5. c #B3B1A6",
"6. c #B5B3A3",
"7. c #B9B6A3",
"8. c #BFBCA7",
"9. c #B6B6AF",
"0. c #B5B4AB",
"q. c #B8B7A9",
"w. c #B8B7AE",
"e. c #BEBCAD",
"r. c #B6B7B2",
"t. c #BFBEB1",
"y. c #B9B9B3",
"u. c #C1BDA6",
"i. c #C1BFAD",
"p. c #C4C1A7",
"a. c #C9C5A7",
"s. c #C3C0AC",
"d. c #C6C3AD",
"f. c #CAC6AB",
"g. c #CCC9AF",
"h. c #D0CCAF",
"j. c #C7C5B4",
"k. c #C4C2B0",
"l. c #C9C6B1",
"z. c #CECAB3",
"x. c #CFCDBE",
"c. c #D1CEB3",
"v. c #D0CDBA",
"b. c #DFDBBC",
"n. c #E2DDBA",
"m. c #D2CFC1",
"M. c #D4D3C3",
"N. c #D9D6C2",
"B. c #DEDBC2",
"V. c #DCD9C8",
"C. c #E1DFC6",
"Z. c #E5E2CC",
"A. c #EAE7CC",
"S. c #E6E4D1",
"D. c #E8E6D4",
"F. c #ECEAD3",
"G. c #E7E6D9",
"H. c #EDECDC",
"J. c #F0ECD6",
"K. c #F3F1D6",
"L. c #F4F3DF",
"P. c #F9F7D9",
"I. c #FBFAD8",
"U. c #EFEEE3",
"Y. c #F5F3E4",
"T. c #FBFAE5",
"R. c #FDFCEC",
"E. c #FEFEF4",
"W. c #FFFFFD",
/* pixels */
"# = > = 4 , 3 t 4 t y 7 x y y b p b b a U x x P a v x y v y y x ",
"= * = , , 4 4 4 8 8 y a y a x a b x x K x b K x K x x v a a a y ",
"= = = , , 4 7 4 t t y a a x x z b v b P b L P b P b v b l x l y ",
"# : , = 4 4 4 y 7 y a y v l x T b P T b ( P L / b P K z b l a x ",
", = = 4 , 4 8 7 a y p b a b P A T I P ' b / / K ( K b Y z b v y ",
"= = , , 4 4 7 t y a h c b A A I I ) ' ) ` ( / / U U Y K b x x x ",
"= : , , 4 4 8 y y d v c I A I ! ) _ O.O.:.` { ` ( ( T K L v x x ",
", = : 4 , 7 u w c S c E A ~ ) R ,.' _ 9.) 2.3.( :.T T ( v b b y ",
"= , , , 7 4 8 a i V A D ! E I ,.*.5.<.q.r.<.;.3.( ( ( b U v x b ",
", : , 4 4 8 u i M V W ~ ~ [ 4.6.j.6.5.t.<.9.0.1.-.' T Y b b v a ",
", = , 6 4 0 i i c M D ..+.7.7.s.l.i.v.M.e.t.w.O.' ' T T b b v l ",
"& , , , 8 6 u A h G E ] k.f.p.N.B.H.G.x.F.e.e.y.! O.T b T x a b ",
", = , 4 1 w i j I | W 6.f.S.T.A.T.Y.F.L.p.0.0.) >.! T T x b b y ",
"= : , , 6 w i M M R $.c.C.F.R.E.R.E.T.Y.G.k.e.O...O.! b P x l x ",
"= = 1 , 0 w u G C Q =.f.A.L.R.W.W.E.T.Y.U.k.@.@.^ _ P v b x a x ",
", = = 5 2 0 u g D J  .u.Z.T.W.W.W.W.E.E.Z.z.6.~ ' I P T a v x t ",
"# = > , 5 9 w k N E z.&.Z.F.P.W.W.W.E.F.D.8.X.O.P ! A x b a y x ",
"= * = , , 9 w g V D Q o.=.b.I.T.E.E.E.T.A.d.i.^ ^ A b A a a a 8 ",
"= $ = 1 , 5 0 r j C D o.#.n.A.J.K.K.L.L.m.z.7...I b c A a a p 8 ",
"@ * = & 6 1 9 i s Z G J a.c.c.Z.b.B.Z.g.N...] ..A b x y l y 8 a ",
"= # % , = < 5 5 i i m | } o.z.h.V.X.| 8.%.^ W c A d a x 8 y y 3 ",
"# # # * ; , 1 6 0 i k V W E Q o. .~ E W  .W S v a a y y y 8 7 7 ",
"@ # # # = ; < 6 6 w f s M M C E V D V c V j M h y h y 8 8 7 4 7 ",
"# O + - $ = , ; q 6 9 s B F M k c k C c u d i 8 a u 0 y 4 7 7 , ",
"O + # + = # = , , 5 q 5 H n e h e j j w a u 8 u 5 8 7 4 8 3 , 4 ",
"+ O O # # # * = ; , < 5 6 9 q 6 i i 8 u q 8 8 7 8 4 4 4 3 3 3 , ",
"O O O + O # # # = = < , , 5 5 5 6 5 5 5 4 5 4 4 4 3 3 4 , , , = ",
". O O o # + @ = # = = # 1 , ; 5 , 4 4 < 7 , , 4 : 3 , = 4 = = , ",
"O . . O O O # O $ # # , # = , = , = : 4 = , < = 3 : = , = : = # ",
". . X . O O O # O # # # = * * = = = : = , = = > = = = * = * # * ",
". . . . O O O + O # # + $ # # = # = = & : = = = * = = # = # # # ",
"O     o   o O . @ O O # O # $ O = # # = @ = = # = # # = O # # O "
};
