/* XPM */
static char *ec9f91019c7a4dbdcd10b0141e23228708CgQTfkKFVkQK9F[] = {
/* columns rows colors chars-per-pixel */
"60 81 253 2 ",
"   c #010101",
".  c #01030B",
"X  c #04090D",
"o  c #080606",
"O  c #020C13",
"+  c #080C14",
"@  c #05121C",
"#  c #0B141C",
"$  c #081618",
"%  c #13151B",
"&  c #13191B",
"*  c #0A1112",
"=  c #16281C",
"-  c #18351D",
";  c #282A1C",
":  c #0C1C25",
">  c #091827",
",  c #141B24",
"<  c #141D2A",
"1  c #191B26",
"2  c #0B1D35",
"3  c #10152E",
"4  c #0C232A",
"5  c #19242D",
"6  c #182628",
"7  c #1A3728",
"8  c #092537",
"9  c #172934",
"0  c #183437",
"q  c #0C393F",
"w  c #272829",
"e  c #332828",
"r  c #25372A",
"t  c #38352C",
"y  c #252B33",
"u  c #2B343C",
"i  c #263437",
"p  c #373737",
"a  c #362C31",
"s  c #47362D",
"d  c #473B36",
"f  c #513933",
"g  c #653936",
"h  c #1B4716",
"j  c #264A1A",
"k  c #30581C",
"l  c #366719",
"z  c #2E6F1D",
"x  c #285928",
"c  c #32582A",
"v  c #365A38",
"b  c #2C492F",
"n  c #376C2B",
"m  c #1A4E32",
"M  c #57443B",
"N  c #4C4C31",
"B  c #6D513A",
"V  c #47742F",
"C  c #0A2A46",
"Z  c #06374B",
"A  c #163446",
"S  c #063558",
"D  c #122E50",
"F  c #273545",
"G  c #353B44",
"H  c #213A58",
"J  c #06396A",
"K  c #0E3A72",
"L  c #2C3E64",
"P  c #423D44",
"I  c #164A53",
"U  c #3B454D",
"Y  c #384748",
"T  c #3B4852",
"R  c #3A4655",
"E  c #2F524C",
"W  c #2D6F48",
"Q  c #045276",
"!  c #0E4E70",
"~  c #2C4B6D",
"^  c #2D6B67",
"/  c #1B6572",
"(  c #44464B",
")  c #5B4A44",
"_  c #464D56",
"`  c #56565A",
"'  c #505455",
"]  c #695648",
"[  c #785748",
"{  c #6E5650",
"}  c #4D7152",
"|  c #7A6450",
" . c #555C64",
".. c #48586F",
"X. c #5A626A",
"o. c #586168",
"O. c #506B70",
"+. c #64656B",
"@. c #6C747C",
"#. c #6A7777",
"$. c #71777B",
"%. c #6C6C71",
"&. c #83594D",
"*. c #865850",
"=. c #886957",
"-. c #966B57",
";. c #997357",
":. c #8A6549",
">. c #A4755C",
",. c #A66A5C",
"<. c #9A7766",
"1. c #8C736B",
"2. c #A77864",
"3. c #B67968",
"4. c #AA6B61",
"5. c #C27E6A",
"6. c #3C8A34",
"7. c #498630",
"8. c #349456",
"9. c #2E9170",
"0. c #508D4B",
"q. c #678F53",
"w. c #529267",
"e. c #6D926E",
"r. c #74B172",
"t. c #5CA364",
"y. c #B18259",
"u. c #8F8279",
"i. c #B78669",
"p. c #B68B74",
"a. c #AE8B71",
"s. c #86B271",
"d. c #C7886D",
"f. c #C99576",
"g. c #D69978",
"h. c #CD906F",
"j. c #E69C76",
"k. c #EF9E72",
"l. c #DAA27E",
"z. c #ECA26C",
"x. c #F2A46D",
"c. c #EDA374",
"v. c #E4A47C",
"b. c #ECA37A",
"n. c #EBA97A",
"m. c #F3A374",
"M. c #F2A47B",
"N. c #F6A978",
"B. c #EBB078",
"V. c #91CC7C",
"C. c #0C3E85",
"Z. c #0E5093",
"A. c #30548A",
"S. c #0A749B",
"D. c #116F92",
"F. c #297392",
"G. c #0A5AB5",
"H. c #0D54A9",
"J. c #0965B9",
"K. c #0F70AD",
"L. c #2A5BA7",
"P. c #767C82",
"I. c #6A768A",
"U. c #506A8A",
"Y. c #0D5CC4",
"T. c #076CC9",
"R. c #047AD5",
"E. c #0F73CC",
"W. c #2B8E8F",
"Q. c #35A697",
"!. c #148DB1",
"~. c #2A91AC",
"^. c #2A9B9D",
"/. c #4E938A",
"(. c #7A838A",
"). c #52AE90",
"_. c #6ABA8B",
"`. c #4495AE",
"'. c #6A9EAC",
"]. c #64C697",
"[. c #088BC8",
"{. c #0193CB",
"}. c #0592C7",
"|. c #0587D5",
" X c #0191D9",
".X c #138BC4",
"XX c #858B92",
"oX c #8C949B",
"OX c #95989B",
"+X c #898889",
"@X c #939BA3",
"#X c #9BA3A7",
"$X c #9AA4B0",
"%X c #A5AAAD",
"&X c #AAABAB",
"*X c #ACADB3",
"=X c #A6ADB4",
"-X c #ABB3B6",
";X c #B0B6B7",
":X c #ADA087",
">X c #D3A78D",
",X c #E5AA83",
"<X c #EBAB84",
"1X c #E7A886",
"2X c #F4AA84",
"3X c #EBB694",
"4X c #E8B998",
"5X c #F2B68E",
"6X c #EABEA5",
"7X c #CAA592",
"8X c #8FCA84",
"9X c #EAC4A6",
"0X c #F5C8A9",
"qX c #EDCDB6",
"wX c #F3CDB3",
"eX c #FACDB6",
"rX c #EDD2B7",
"tX c #F6D3B9",
"yX c #E4C2A9",
"uX c #B6BDC3",
"iX c #BCC3CB",
"pX c #C5C7CB",
"aX c #C8CDD4",
"sX c #DBDCDD",
"dX c #D7D8D8",
"fX c #CBD2D8",
"gX c #F7DBC9",
"hX c #FBDED1",
"jX c #E5DAD9",
"kX c #F8E1CD",
"lX c #FDE2D3",
"zX c #F9E4D8",
"xX c #EEE2D2",
"cX c #DBDCE2",
"vX c #D6DEE7",
"bX c #E2DAE3",
"nX c #DDE1E3",
"mX c #D9E3ED",
"MX c #E7E8EA",
"NX c #FCEDE4",
"BX c #F8EBE8",
"VX c #FBF2E9",
"CX c #E8EDF2",
"ZX c #F4F4F5",
"AX c #FDF5F4",
"SX c #FDFAF6",
"DX c #F4F6FA",
"FX c #FCF6FA",
"GX c #F5FAFC",
"HX c #FCFCFD",
"JX c #F6F9F7",
"KX c #F1F0F4",
"LX c #DCE0DF",
/* pixels */
"                      o       . X # @ O @ @ @ O @ O X . .                   . @ @ @ @ @ @ > @ .                         ",
"                      o o     . . , , , 6 < 5 : < # X           o     o X X + # 5 < 5 5 5 5 : .     o o                 ",
"                              . O y u u u i u i G y #                     . 6 G u u u u u u 5 @                         ",
"                            . + p `  .o.o.o.X.o. ._ i +                   # G X.o. .X.o.o.X. .U + X                     ",
"                    o       % 5 ` $.XXoX@X@X@XoX(.@._ w X             * w Y o.P.oXoX@X@XoXoXP.X.u 5 +                   ",
"                    o     X 5 p  .+X%XiXfXfXaXiX$XXX .u % .         X & y _ P.#XuXpXfXfXpX;XoX+.( w +                   ",
"                          + w G +.OXpXCXHXGXDXCXiXoX .u , O . .   . + # 6 ( (.uXMXKXGXGXCXdX%X%.U w X                   ",
"                o       . + 1 u o.OXaXZXHXHXHXDXaXoX` i , O X X . . O # y _ XX;XDXGXHXHXJXnX&X%.U w + .                 ",
"                  . .   . X 1 u o.OXdXZXHXHXHXDXpXOX` y # O O O O O O @ 5 ( +XuXCXGXHXJXGXMX&X%.G , X     . o           ",
"                  .     . X , u o.OXfXZXHXHXGXDXpXOX` y % O O # # O O # 5 ( +X;XCXHXHXHXJXMX&X%.Y 5 + X     o o         ",
"                      . + # 5 G +.OXfXZXHXHXHXZXpXOXX.G 5 , 5 5 5 < , 5 i ' XXuXCXJXHXHXZXnX%X#.( y , # .     o         ",
"                      # y G _ o.(.%XsXZXHXHXHXZXaX&XP.` ( U U T T U U U ' %.@XpXMXGXHXHXZXMX;XXXX._ G y #     o         ",
"                    + y _ X.I.XX%XiXnXDXHXHXHXZXsXpX#XXX$.@.@.@.P.P.@.P.(.OX;XfXKXJXHXGXGXCXaX-XoXP.+._ y X   .         ",
"                  X 1 G +.XX$XuXfXcXCXDXHXHXJXJXMXsXpX;X-X*X=X=X-X-X-X-X;XpXdXMXZXHXHXJXGXKXnXfXiX=XoX%.G & X           ",
"                  * w U @.$XiXmXCXKXDXGXJXHXJXZXZXKXMXnXcXnXnXvXvXvXvXcXnXMXCXZXZXJXHXJXGXGXZXCXmXaX=X(._ y & +         ",
"                  % y U @.=XvXGXHXHXHXGXGXJXJXZXHXJXZXZXJXHXHXGXGXGXGXDXJXDXFXHXZXZXJXJXGXHXHXHXHXCXiXoX+.( p w         ",
"                X # 5 T $.-XnXHXHXHXHXJXZXJXHXJXHXHXHXHXHXHXGXGXHXHXHXHXHXHXHXHXHXHXHXHXHXHXHXHXHXZXcX;XXX@.X._ p *     ",
"                X @ 5 U @.*XnXJXSXHXHXGXDXGXHXJXHXHXHXHXHXHXHXHXHXHXHXHXHXHXHXHXHXHXFXFXHXHXHXHXHXFXCXfX-X#XXX%.' w % * ",
"                X @ 5 U @.*XcXZXSXHXHXGXDXGXGXJXSXAXAXAXSXHXHXHXHXSXSXSXSXAXAXAXAXAXAXAXSXSXSXSXSXFXJXCXnXfX-XXXo.u , # ",
"                X @ 5 U @.=XcXJXHXHXHXGXDXGXGXZXAXVXVXNXNXNXNXNXVXNXVXNXNXNXNXNXNXNXNXNXNXNXNXNXBXBXAXGXGXCXiXoX .i : @ ",
"                X @ 9 U @.=XsXJXHXGXGXGXGXGXGXZXVXNXzXkXhXgXgXgXgXgXgXkXkXkXkXkXkXxXkXgXkXgXgXgXxXxXBXAXHXDXpXoX .F < > ",
"                X # 9 T @.%XsXJXSXJXGXGXGXGXGXAXNXzXgXrXwXwXwXwXwX0XwXwXqXqXqXqXqXqXqXwXwX0X9X9XqXrXxXNXSXZXaX@XX.F < > ",
"                X # 9 T @.%XsXZXJXJXGXGXGXGXSXVXzXgXwX9X4X3X3X3X3X3X3X3X4X4X4X4X6X4X4X4X3X3X3X3X4X9XrXkXNXVXpXOXo.F 2 > ",
"                . @ 9 T @.%XsXZXHXHXGXGXJXSXVXNXlXtX6X3X1X,X,Xn.<X<X<X<X1X1X1X1X1X,X1X1X<X<Xn.,X,X3X0XtXlXzXpXOX .F 2 > ",
"                . # 5 U @.%XnXZXHXHXHXSXAXAXzXhXtX0X3X<Xn.b.b.b.b.b.b.b.b.b.1X1Xv.v.v.b.c.c.c.b.b.<X6X0XtXtX7X+X` u 4 > ",
"                . # 5 U @.%XnXZXHXHXFXAXVXNXgXtX0X3X<Xb.b.b.b.M.M.M.M.M.k.j.j.b.b.c.b.c.c.k.m.M.M.2X5X0X0X0X7X1.' y : > ",
"                . # 5 U @.%XnXZXHXHXFXAXNXhXqX6X3X5XM.b.M.M.2X2X2X2X2XM.b.k.k.m.k.m.N.N.m.c.c.M.2X2X2X5X5X3X7X1.) y : > ",
"                . # 5 U @.%XnXZXHXHXAXVXzXgX6X3X<X2XM.M.b.b.1X,Xj.v.1Xb.b.M.m.N.k.m.N.m.c.b.b.b.1X1X<X<X<X,Xp.=.) w < > ",
"                . # 5 U @.%XnXZXHXHXAXVXzXqX4X1Xb.b.c.c.b.g.f.h.h.f.g.v.b.b.N.N.m.N.N.m.b.v.j.g.h.h.g.v.v.l.i.=.M w < > ",
"                . : 5 U @.%XnXZXHXHXHXVXhXwX3X1Xb.c.c.b.g.h.i.>.;.2.d.g.v.b.c.x.m.N.N.b.v.g.h.i.>.>.y.h.g.g.i.=.M w < > ",
"                . # 5 U @.%XnXZXHXHXHXVXhXwX3X<Xb.N.N.b.g.i.-.[ B :.2.f.l.n.c.c.m.N.N.b.v.g.i.:.B B :.>.h.g.i.=.M w 1 > ",
"                . : 5 U @.%XnXZXHXHXHXVXkXwX3X<Xc.N.N.v.h.>.[ f s B -.p.l.<XN.N.x.N.N.n.,Xf.>.B N N B -.i.f.p.-.) a 5 > ",
"                  # 5 U @.%XLXZXHXHXHXNXkXwX4X<Xk.m.M.j.d.=.M s e N =.a.l.n.N.x.x.N.N.n.v.f.;.B t r s [ 2.f.p.=.M w 6 > ",
"                  # 5 U @.%XLXZXHXHXHXNXxXwX4X<Xk.k.k.g.3.*.f e ; N | a.l.<XN.N.m.N.N.N.,Xf.;.B r 6 s [ >.i.3.&.M w 4 > ",
"                  # 5 U @.%XnXZXHXHXSXNXkXwX4X<Xj.k.j.h.2.[ f e ; s | a.>X<X2XN.m.N.N.<X,Xf.;.B e ; s [ ,.3.4.&.M w 4 > ",
"                  # 5 U @.%XnXZXHXHXSXVXkXwX4X<Xj.j.h.d.4.[ f e e M =.p.>X<X2XN.m.M.N.<X,Xf.;.B s e s &.4.3.4.*.M w 5 > ",
"                  # 5 U @.%XnXZXHXHXSXNXkXwX4X1Xj.j.h.d.>.&.M s f ] -.p.>X<X2XN.b.b.n.<X,Xf.>.[ f s g *.4.3.,.*.f w 5 > ",
"                  # 5 T @.%XnXZXHXHXSXNXkXwX4X1Xj.j.h.d.3.-.[ ] [ *.2.f.,X<X<XN.N.N.n.<X,Xg.i.-.[ B &.,.4.3.,.&.f w , > ",
"                . # 5 T @.%XnXZXHXHXSXNXlXwX4X1Xj.j.j.h.d.3.2.;.-.4.d.g.v.b.b.N.m.m.c.n.v.g.d.3.>.-.,.3.5.5.4.&.f w , @ ",
"                . # 5 T @.%XnXZXHXHXSXVXhXqX6X1Xj.j.j.j.g.h.d.d.5.d.g.j.b.b.c.c.z.z.c.c.b.v.g.h.h.i.d.h.h.h.3.*.M w 1 > ",
"                X # 9 T @.%XsXJXHXHXHXAXzXgX6X3X<Xn.c.z.c.c.b.j.1Xj.k.c.m.m.x.x.x.x.x.m.m.c.k.j.v.v.b.<X1X>Xp.=.M w , : ",
"                X # 9 T @.%XcXJXHXHXJXAXNXgXqX4X5X2Xc.m.m.m.m.m.M.M.m.m.m.x.x.x.z.z.z.z.m.m.M.N.B.B.B.5X3X3X:X1.) w , : ",
"                X @ 9 T @.%XsXDXHXHXHXFXBXhXgXwX0X5X2XN.N.m.m.m.M.M.m.m.m.z.z.z.x.z.z.z.c.c.m.c.c.B.5X0X0X9X7Xu.' y 1 : ",
"                X @ 9 T @.%XsXZXHXGXHXFXAXBXzXgXtX0X5Xn.c.c.m.m.M.M.b.b.c.c.c.c.c.c.c.c.c.c.b.b.c.B.5X0XtXrX;X+X` a , # ",
"              . O # 9 U @.*XcXZXHXHXHXHXFXAXVXzXgXtX6X3X,Xv.b.b.<X<X<X,X,Xv.,X,Xv.v.,X<X<X<X<X<Xv.,X9XtXkXxXuXoX .u , # ",
"    o         . O # 9 U @.*XcXGXGXGXGXHXHXFXAXAXzXkXqX9X4X3X3X3X3X3X3X3X3X3X3X3X3X3X4X4X4X4X4X3X3X4XtXkXNXBXpX@X .u 1 @ ",
"            . + O # 5 U @.*XnXGXGXJXGXHXHXHXHXSXVXzXxXrXrXwXeXeXwXwXwXwXwXwXwXeXeXeXeXeXeXwXwXwXeXgXlXNXFXDXaX@XX.F , @ ",
"          . * % O @ 6 Y @.-XMXHXGXJXHXHXHXHXHXHXSXVXBXzXzXlXlXlXlXlXlXlXlXlXlXlXlXlXlXlXlXlXlXlXhXzXNXAXHXDXaXoXX.u , @ ",
"o .     + 1 5 & $ $ 6 Y $.%XcXFXHXJXFXAXAXFXAXZXZXAXAXBXBXBXBXNXBXBXBXBXBXBXBXNXzXNXNXNXBXBXBXBXVXVXAXFXFXKXpXoXo.i : O ",
"      + 5 y i r 7 - 7 Y #.#XpXbXmXnXbXjXjXjXjXdXsXcXbXbXbXbXsXLXsXsXcXcXcXbXsXsXdXdXdXsXsXsXsXsXsXsXsXbXcXdX;XXXo.i 4 @ ",
"X . * i Y Y v E v v } } e.XX#X%X=X=X=X&X&X&X%X%X#X%X*X*X*X*X%X%X&X&X*X*X*X*X*X&X&X&X&X&X*X*X*X-X-X-X;X-X*X%XOX$.` i & O ",
"& % 5 Y } } 0.w.q.q.q.e.e.#.#.#.#.#.@.@.@.@.#.#.#.#.@.$.@.#.#.#.#.$.$.$.$.$.@.@.$.$.#.#.@.@.@.$.$.$.$.$.$.P.#.o.u # O . ",
"% , r E } e.r.r.s.s.s.e.e.} T T I R R R R R R R Y Y T ( ( U U Y U U U T T R T R T Y Y Y Y Y U Y U Y U T U T T Y O .     ",
"% 1 7 v } r.8X8X8X8X8Xr.w.E I q 8 C D D A A A A 0 0 i i y y 0 0 0 0 0 0 q C C C q 0 0 0 0 0 0 9 5 1 5 9 5 9 9 9 . . . . ",
"% 1 7 v 0.r.V.V.V.s.s.e.O.E I Z S S S S S S S S Z A Y Y Y Y A A Z Z Z Z Z S S S Z Z I E E b i 9 5 # @ # @ @ > @ O . + o ",
"@ , 7 v 0.r.V.V.s.e.} } ^ I ! Q Q Q Q ! ! ! Q ! / ^ ^ O.} ^ ^ ! ! Q Q Q Q Q Q Q ! ! ^ ^ } } E Y y , @ @ @ @ @ O . . . o ",
"3 < r v 0.r.V.s.e.} E E I / / D.S.S.S.S.D.S.S.D.D.W.).)././.W.W.S.S.S.S.S.S.K.S.~.W.W./.e.e.} E u , @ % $ $ # @ . . . o ",
"3 : r v 0.s.s.s.q.( i A I / F.~.~.!.!.!.K.K.K.S.^.)._._.).).Q.~.!.[.!.!.!.!.[.!.!.~.)._._._.w.} i , % 6 = = w 5 . . . o ",
"> : 7 c } r.s.s.} b 0 A I / W.`.`.`.`.~.~.~.K.D.W.Q._.].].].Q.!.}. X{.{.{.{. X|.!.~.).)._.r.q.} i 5 6 w t t d p o   . . ",
"3 : 7 c V q.q.q.} b 0 A I O./.'.'.'.'.'.`.F.F.D./ 9.t.r._.).Q.!.{. X{.{.{. X X X}.~.Q.).r.t.0.v i 5 w N M ] { ) ( y # . ",
"3 : 7 j V 7.q.0.v r 6 u _ @.oX#X&X&X#XOX(.O.~ I E W 0.0.t.w.^.!.[. X{.{.{. X X X}.!.Q.w.t.0.V c r 6 t ) =.<.<.{ d w # # ",
"3 : - j l V 7.V c 7 6 u ' 1.:X7X>X>X>X:Xu.+.R 0 m c V 7.0.9.W.!.[.|.{.{.{. X X X}.!.9.8.0.7.n j 7 6 d | 2.p.i.&.) p , : ",
"3 : = j l V 7.n x h - t ] <.f.1X2X2Xn.g.a.{ p 6 = j l 7.0.8.W.!..X[.[.!.{.{. X X[.!.9.8.0.7.n j - 7 N =.i.g.d.-.M w $ @ ",
"3 : - j l V 7.n x - - t ] 2.1X2XN.N.N.z.y.| d w - j l 7.7.8.W.!..X[.[.[.}.{. X X[.!.9.8.0.7.l h - r M =.p.>Xf.-.M a : > ",
"2 9 - h l 7.7.n x 7 = t { 2.g.2X5X2XN.z.y.B d w - h z 6.8.8.W.~..X{.[.[..X[.{.{.}.!.W.8.6.7.z h - r N =.p.>Xd.-.) a 1 > ",
"3 : - j l V 7.V x - 6 p { <.f.1X2XM.x.g.y.[ d i 7 m n 6.8.9.W.!.[.{.|.[.[.[.{.{.}.!.W.9.0.6.z h - w N =.p.>Xp.-.) a 1 < ",
"3 : 6 b c n n n x j - b ] =.a.f.g.g.g.p.<.{ ( F 0 m W 8.9.9.~.!.[.|.|.|.|.[.[.[.[.!.~.W.w.W x j - w d | <.p.a.=.) e , : ",
": % = r b c c n c k j k N | ;.2.2.2.a.<.%.` L H I I ^ 9.W.W.!..X|.|.R.R.R.|.|.|.[.K.!.W.W.^ W m 6 5 t ) | =.=.{ ) a % : ",
"X o X = r b x x k l l N N B ] ] [ ] {  . .~ ~ ~ ! A.F.F.S.K.K.E.R.R.R.R.R.R.R.E.E.K.K.K.F.F.I I 0 5 w d M ] ] M t & X O ",
"      $ 6 7 r j k n V V V N N t t t p G L ~ A.Z.Z.Z.K.K.K.K.J.E.T.T.T.T.T.T.T.T.J.K.J.K.K.D.! S A 9 5 w t s s t o     . ",
"      . @ = 6 - c n V V N b r = = = 5 C K C.Z.H.H.H.H.K.K.G.J.J.G.G.J.J.J.Y.G.G.G.J.J.J.T.G.Z.J D 2 < , w w ; &     . X ",
"        X # 6 - c n V c b 7 6 @ $ $ > C J C.H.Y.E.J.H.H.Z.Z.Z.Z.Z.Z.Z.Z.H.H.H.Z.Z.H.G.Y.Y.Y.Z.J D 2 > : & & * o     .   ",
"          X & = b v c b 7 7 4 : # @ > C J C.H.Y.Y.G.Z.Z.Q J K K K K ! ! Z.C.K K ! Z.H.G.Y.Y.Z.K D 2 2 @ @ $             ",
"              o = r r 7 7 4 4 : 1 : : 8 S C.H.Y.G.H.Z.J S Z D D D C Z Z S S S S S J Z.H.G.G.Z.K D 8 2 > O X             ",
"      o         X 6 9 9 4 4 > : 1 , , 8 D K Z.L.H.Z.J Z 8 4 2 2 8 4 4 8 8 2 2 C C S K Z.H.L.Z.K D 8 < @ X . .           ",
"          o o . . # 4 : 4 4 : 5 1 1 , 9 A ~ A.L.L.~ H 8 4 : , , , , , 5 < : > 2 8 D ~ ~ A.U.A.~ A 4 : O . .   .         ",
"o                 X O O : : , , , 1 5 9 F ..U.I.I...F 5 , # % % # # & & % * # : 8 F R O.I.I.X._ u , # X   .             ",
"                  .   . X X X O @ : < y G +.P.+X1.+.P w , # + + X X . o   o * , < F _ %.+X+X%.` p 6 #     .             ",
"      o . .                     X @ < y P %.u.a.a.=.f e 1 # O X . . . o     o # < G ` 1.a.p.1.{ p w % .   .             ",
"                        o     . O > < y ( 1.a.p.i.-.M a 1 > X . . . o o     o * y G { <.f.f.<.{ t 6 % .   o             ",
"                                . # : w M =.d.g.d.-.) w , @                   & 5 p [ p.h.f.2.{ p 5 &                   "
};
